<?xml version="1.0" encoding="UTF-8"?>
<svg width="459px" height="400px" viewBox="0 0 459 400" version="1.1" xmlns="http://www.w3.org/2000/svg" xmlns:xlink="http://www.w3.org/1999/xlink">
    <!-- Generator: Sketch 46.2 (44496) - http://www.bohemiancoding.com/sketch -->
    <title>ingredientsicon_active</title>
    <desc>Created with Sketch.</desc>
    <defs></defs>
    <g id="Page-1" stroke="none" stroke-width="1" fill="none" fill-rule="evenodd">
        <g id="Artboard" transform="translate(-53.000000, -67.000000)">
            <g id="ingredientsicon_active" transform="translate(53.000000, 67.000000)">
                <g id="ingredientsicon">
                    <path d="M155.358957,87.0071022 L161.555089,90.1854924 C170.265832,94.6537863 180.718724,92.8917609 187.57227,85.8436597 C191.82903,81.4765347 194.179287,75.6677527 194.179287,69.4964487 C194.179287,63.3251447 191.837247,57.5079319 187.57227,53.1408069 C161.119552,26.0022447 118.067116,26.0022447 91.6226153,53.1408069 L72.3274979,72.9446226 C59.5161317,86.0797205 52.4571429,103.556651 52.4571429,122.15487 C52.4571429,140.744659 59.5161317,158.22159 72.3274979,171.373549 C81.1122,180.394444 95.4191844,180.394444 104.203886,171.373549 C111.073869,164.333879 112.774929,153.609973 108.427775,144.673385 L105.337927,138.333467 C104.590117,136.78221 104.877736,134.919016 106.0693,133.696558 C107.20334,132.541546 108.518169,132.431946 109.183802,132.541546 C109.865869,132.600561 111.13961,132.912499 112.364045,134.691386 L145.119725,177.199193 C148.028785,180.976166 152.384156,183.303051 157.068235,183.581265 C157.388724,183.598127 157.700996,183.606557 158.013268,183.606557 C162.360422,183.606557 166.55144,181.836101 169.633071,178.666142 L191.902989,155.818828 C195.058579,152.581423 196.808945,148.104698 196.710333,143.535235 C196.619938,138.965772 194.680565,134.573355 191.40171,131.479272 L152.285544,94.6116325 C152.006143,94.3502795 151.710306,94.0973572 151.398034,93.8781579 C150.083205,92.9592069 149.787369,91.644011 149.721627,90.9442593 C149.664103,90.2445076 149.721627,88.9040194 150.84745,87.7490076 C152.047231,86.5434113 153.855121,86.2314738 155.358957,87.0071022 Z" id="Shape" fill="#4F524D" fill-rule="nonzero"></path>
                    <path d="M245.100492,124.760265 C242.30869,121.96211 241.808032,117.59903 243.904005,114.239544 L275.810315,63.0732921 C273.307028,61.6104272 270.998912,59.8328762 268.91991,57.7491442 C262.513191,51.3278476 258.983131,42.7802938 258.983131,33.6969233 C258.983131,24.6135528 262.513191,16.065999 268.91991,9.64470243 C281.741834,-3.21490081 304.101708,-3.21490081 316.923632,9.64470243 C318.798977,11.5243138 320.428235,13.6165508 321.802922,15.9044035 C335.201875,13.6080458 349.1524,17.8860751 358.92795,27.6838681 C368.711986,37.4901661 372.971818,51.455423 370.680673,64.8933682 C372.971818,66.2711828 375.059305,67.9041483 376.93465,69.7837596 C383.341369,76.2135613 386.871429,84.744105 386.871429,93.8359805 C386.871429,102.927856 383.341369,111.466905 376.926164,117.896706 C364.10424,130.75631 341.744366,130.75631 328.922442,117.896706 C326.84344,115.812974 325.069924,113.499607 323.618866,110.990623 L272.560284,142.969531 C271.177112,143.837044 269.615739,144.262295 268.071338,144.262295 C265.882022,144.262295 263.709678,143.411792 262.071934,141.770322 L245.100492,124.760265 Z" id="Shape" fill="#6BAE44" fill-rule="nonzero"></path>
                    <g id="Page-1" transform="translate(0.000000, 163.934426)" fill="#6BAE44">
                        <path d="M0,0 C0,117.771023 97.0667944,236.065574 223.815593,236.065574 C350.564391,236.065574 459,117.771023 459,0 L0,0 Z" id="Stroke-1"></path>
                    </g>
                </g>
            </g>
        </g>
    </g>
</svg>