<?xml version="1.0" encoding="UTF-8"?>
<svg width="437px" height="381px" viewBox="0 0 437 381" version="1.1" xmlns="http://www.w3.org/2000/svg" xmlns:xlink="http://www.w3.org/1999/xlink">
    <!-- Generator: Sketch 46.2 (44496) - http://www.bohemiancoding.com/sketch -->
    <title>ingredientsicon_active</title>
    <desc>Created with Sketch.</desc>
    <defs></defs>
    <g id="Page-1" stroke="none" stroke-width="1" fill="none" fill-rule="evenodd" opacity="0.5">
        <g id="Artboard" transform="translate(-64.000000, -76.000000)">
            <g id="ingredientsicon_default" transform="translate(61.000000, 76.000000)">
                <g id="ingredientsicon" transform="translate(3.119718, 0.000000)">
                    <path d="M147.831515,82.8742649 L153.727433,85.9016815 C162.016124,90.1577314 171.962552,88.4794023 178.484032,81.7660858 C182.534543,77.6063993 184.770925,72.0735344 184.770925,66.1953674 C184.770925,60.3172003 182.542362,54.7763051 178.484032,50.6166186 C153.312998,24.7671381 112.346536,24.7671381 87.1833226,50.6166186 L68.823091,69.479753 C56.6324602,81.9909337 49.915493,98.6377101 49.915493,116.352514 C49.915493,134.059288 56.6324602,150.706064 68.823091,163.233305 C77.1821572,171.825708 90.7959406,171.825708 99.1550069,163.233305 C105.692125,156.528019 107.310766,146.313499 103.17424,137.8014 L100.234101,131.762627 C99.5225243,130.285055 99.7962075,128.510362 100.930038,127.345971 C102.009131,126.245823 103.260255,126.141429 103.893636,126.245823 C104.542656,126.302035 105.754681,126.599155 106.91979,128.293545 L138.088394,168.782231 C140.856504,172.379798 145.000849,174.596156 149.457975,174.861155 C149.762937,174.877216 150.060078,174.885246 150.35722,174.885246 C154.493746,174.885246 158.481701,173.198887 161.414021,170.1795 L182.604918,148.417434 C185.607614,145.333805 187.273171,141.069725 187.179337,136.717311 C187.093322,132.364898 185.247916,128.181121 182.127928,125.234007 L144.907015,90.11758 C144.641151,89.8686412 144.359649,89.6277327 144.062507,89.4189454 C142.811384,88.5436446 142.529881,87.2909204 142.467325,86.624407 C142.412588,85.9578935 142.467325,84.6810785 143.538599,83.5809298 C144.680249,82.4325993 146.400543,82.1354788 147.831515,82.8742649 Z" id="Shape" fill="#4F524D" fill-rule="nonzero"></path>
                    <path d="M233.2249,118.834152 C230.568366,116.16891 230.091966,112.013076 232.086385,108.813166 L262.446773,60.0773107 C260.064774,58.6839319 257.868491,56.9908146 255.890221,55.0060598 C249.79392,48.8897748 246.434898,40.7482299 246.434898,32.0963194 C246.434898,23.444409 249.79392,15.3028641 255.890221,9.18657906 C268.090898,-3.06219302 289.367393,-3.06219302 301.56807,9.18657906 C303.352551,10.9769088 304.902868,12.9697646 306.210949,15.1489443 C318.960697,12.9616636 332.235292,17.0364866 341.537198,26.3688844 C350.847178,35.7093832 354.900613,49.0112904 352.720479,61.8109332 C354.900613,63.1233017 356.886957,64.6787013 358.671438,66.4690311 C364.767739,72.5934171 368.126761,80.71876 368.126761,89.3787714 C368.126761,98.0387829 364.767739,106.172227 358.663363,112.296613 C346.462686,124.545385 325.186191,124.545385 312.985514,112.296613 C311.007244,110.311858 309.319659,108.108375 307.938907,105.718569 L259.354212,136.178478 C258.038057,137.004784 256.552336,137.409836 255.082764,137.409836 C252.999525,137.409836 250.932434,136.599732 249.374042,135.036231 L233.2249,118.834152 Z" id="Shape" fill="#6BAE44" fill-rule="nonzero"></path>
                    <g id="Page-1" transform="translate(0.000000, 156.147541)" fill="#6BAE44">
                        <path d="M0,0 C0,112.1769 92.3637207,224.852459 212.971295,224.852459 C333.578869,224.852459 436.760563,112.1769 436.760563,0 L0,0 Z" id="Stroke-1"></path>
                    </g>
                </g>
            </g>
        </g>
    </g>
</svg>