<?xml version="1.0" encoding="UTF-8"?>
<svg width="397px" height="433px" viewBox="0 0 397 433" version="1.1" xmlns="http://www.w3.org/2000/svg" xmlns:xlink="http://www.w3.org/1999/xlink">
    <!-- Generator: Sketch 46.2 (44496) - http://www.bohemiancoding.com/sketch -->
    <title>similaritemsicon_default</title>
    <desc>Created with Sketch.</desc>
    <defs></defs>
    <g id="Page-1" stroke="none" stroke-width="1" fill="none" fill-rule="evenodd" opacity="0.5">
        <g id="Artboard" transform="translate(-99.000000, -34.000000)">
            <g id="similaritemsicon_default" transform="translate(-61.000000, -51.000000)">
                <g id="Similar-Item-Icon" transform="translate(160.684685, 86.310680)">
                    <g id="Bag">
                        <path d="M82.5352107,428.560954 L0,111.461221 C0,107.092161 4.14936833,105.656177 9.25712095,105.656177 C109.825949,105.656177 185.252571,105.656177 235.536985,105.656177 C263.423814,105.656177 305.254058,105.656177 361.027717,105.656177 C366.13547,105.656177 370.284838,108.32446 370.284838,112.703704 L287.751702,428.56463 L287.751702,428.56463 C287.291674,430.325194 285.70131,431.553398 283.881636,431.553398 L86.4062351,431.553398 L86.4062351,431.553398 C84.5851478,431.553398 82.9939226,430.323323 82.5352107,428.560954 Z" id="Stroke-448" fill="#6BAE44"></path>
                        <path d="M100.986774,116.391865 L100.986774,86.2092254 C100.986774,38.6024763 139.027229,0 189.350201,0 C239.673173,0 277.713629,38.6024763 277.713629,86.2092254 L277.713629,116.391865" id="Stroke-449" stroke="#6BAE44" stroke-width="2" stroke-linecap="round" stroke-linejoin="round"></path>
                    </g>
                    <g id="Group" transform="translate(201.973548, 191.010211)">
                        <g id="Equal-Sign" fill="#4F524D">
                            <ellipse id="Oval-2" cx="96.7789918" cy="89.233763" rx="96.7789918" ry="89.233763"></ellipse>
                        </g>
                        <path d="M151.467016,73.9583033 C151.467016,75.7075418 149.554789,77.019451 145.730277,77.8940702 C141.905765,78.7686895 137.212116,79.2059925 131.649189,79.2059925 L62.8083146,79.2059925 C60.2006926,79.2059925 57.5496501,79.0935432 54.8551075,78.8686411 C52.1605648,78.643739 49.8137403,78.3063909 47.8145635,77.8565867 C45.8153867,77.4067825 44.2942967,76.8570301 43.251248,76.2073129 C42.2081992,75.5575958 41.8605215,74.7829446 42.2082044,73.8833363 C42.9035703,72.3340107 45.3807739,71.271989 49.6398897,70.6972392 C53.8990055,70.1224894 58.4622754,69.8351188 63.3298363,69.8351188 L132.170711,69.8351188 C134.082967,69.8351188 136.169033,69.9225795 138.428972,70.0975033 C140.688911,70.2724272 142.774977,70.5223146 144.687233,70.8471732 C146.599489,71.1720318 148.207499,71.5968405 149.51131,72.121612 C150.815121,72.6463836 151.467016,73.2586079 151.467016,73.9583033 Z M151.480161,104.171497 C151.480161,106.020692 149.836771,107.495028 146.549941,108.594549 C143.263111,109.694071 138.246446,110.243823 131.499796,110.243823 L62.4767161,110.243823 C57.1139939,110.243823 52.6595415,109.856498 49.1132251,109.081835 C45.5669088,108.307172 43.3613062,107.407577 42.496351,106.383023 C41.6313958,105.358469 42.107114,104.346425 43.9235199,103.34686 C45.7399258,102.347295 49.2429418,101.622622 54.432673,101.172817 C57.0275386,100.972904 59.8818479,100.872949 62.9956867,100.872949 L132.018766,100.872949 C135.824569,100.872949 139.543821,101.072859 143.176633,101.472685 C146.809444,101.872511 149.404271,102.622174 150.96119,103.721695 L151.480161,104.171497 Z" id="=" fill="#FFFFFF"></path>
                    </g>
                </g>
            </g>
        </g>
    </g>
</svg>