<?xml version="1.0" encoding="UTF-8"?>
<svg width="202px" height="326px" viewBox="0 0 202 326" version="1.1" xmlns="http://www.w3.org/2000/svg" xmlns:xlink="http://www.w3.org/1999/xlink">
    <!-- Generator: Sketch 46.2 (44496) - http://www.bohemiancoding.com/sketch -->
    <title>Juices Icon</title>
    <desc>Created with Sketch.</desc>
    <defs></defs>
    <g id="Page-1" stroke="none" stroke-width="1" fill="none" fill-rule="evenodd">
        <g id="Artboard" transform="translate(-110.000000, -159.000000)">
            <g id="Juices-Icon" transform="translate(111.000000, 156.000000)">
                <path d="M97.5526316,4.43421053 L97.5526316,323.697368" id="Line" stroke="#6BAE44" stroke-linecap="square"></path>
                <g id="Page-1" transform="translate(0.000000, 70.947368)">
                    <path d="M141.057458,256.998212 L61.3359728,257.403509 C50.8401991,257.403509 43.2342605,248.164339 41.3019492,243.08717 C29.2701536,174.071235 22.0160558,134.428143 19.5396558,124.157895 L179.978052,124.157895 C177.04972,142.210961 166.844414,186.213474 161.142891,218.510099 C154.209636,257.783938 150.364933,251.401402 141.057458,256.998212 Z" id="Stroke-1" stroke="#6BAE44" fill="#6BAE44"></path>
                    <path d="M136.416869,257.538955 L61.3053733,257.538955 C51.3090484,257.538955 42.7301128,250.428068 40.8897519,240.616606 L0.361252447,24.5604786 C-2.03244802,11.7967539 7.77339483,0 20.7775981,0 L179.357176,0 C192.451912,0 202.280208,11.9529736 199.731514,24.7788968 C185.417837,96.7983291 171.104884,168.816315 156.791208,240.835024 C154.861762,250.54451 146.330628,257.538955 136.416869,257.538955 Z" id="Stroke-1" stroke="#4F524D"></path>
                </g>
            </g>
        </g>
    </g>
</svg>