<?xml version="1.0" encoding="UTF-8"?>
<svg width="345px" height="400px" viewBox="0 0 345 400" version="1.1" xmlns="http://www.w3.org/2000/svg" xmlns:xlink="http://www.w3.org/1999/xlink">
    <!-- Generator: Sketch 46.2 (44496) - http://www.bohemiancoding.com/sketch -->
    <title>Kids Menu icon</title>
    <desc>Created with Sketch.</desc>
    <defs></defs>
    <g id="Page-1" stroke="none" stroke-width="1" fill="none" fill-rule="evenodd">
        <g id="Artboard" transform="translate(-132.000000, -67.000000)">
            <g id="Kids-Menu-icon" transform="translate(132.000000, 67.000000)">
                <path d="M177.548387,377.777778 C232.7056,377.777778 277.419355,339.084362 277.419355,291.353616 C277.419355,243.622869 77.6774194,243.622869 77.6774194,291.353616 C77.6774194,339.084362 122.391175,377.777778 177.548387,377.777778 Z" id="Oval-3" fill="#6BAE44"></path>
                <g id="Page-1" stroke-width="1">
                    <path d="M343.694722,227.293696 C343.694722,322.086884 266.949877,398.930882 172.279003,398.930882 C77.6098573,398.930882 0.865013065,322.086884 0.865013065,227.293696 C0.865013065,132.500508 77.6098573,55.6565103 172.279003,55.6565103 C266.949877,55.6565103 343.694722,132.500508 343.694722,227.293696 Z" id="Stroke-1" stroke="#4F524D"></path>
                    <path d="M220.689311,23.2572697 C220.697954,23.1776494 220.649552,25.0712284 220.718697,23.0201396 C220.725612,22.8107035 220.777471,22.6064601 220.812044,22.4022166 C221.349652,19.4181854 222.933089,17.0070743 225.080064,16.3718425 C228.800105,15.2761977 232.741411,17.0347683 233.839099,22.8557063 C234.798496,27.9392909 230.227964,34.7243272 224.62716,35.274746 C219.057471,35.8234338 214.094537,31.5775935 213.712507,25.0868063 C212.770396,17.810201 214.768708,6.02120045 226.663502,6.10082077 C237.695703,6.17697934 241.78913,16.4791569 242.217833,18.8850754 C251.901692,73.1203629 219.166376,110.071117 198.182376,96.2431435" id="Stroke-3" stroke="#6BAE44"></path>
                    <path d="M164.372535,18.8852485 C164.369077,18.8056281 164.598987,20.687091 164.36562,18.6463875 C164.341419,18.4386823 164.362163,18.2275154 164.369077,18.0198102 C164.458967,14.9907761 165.670746,12.3719598 167.700173,11.4269012 C171.217962,9.79468453 175.37362,10.9509101 177.318344,16.5451033 C179.0176,21.4330988 175.494625,28.8187493 170.037298,30.1896036 C164.60763,31.5552652 159.074243,28.0883194 157.739731,21.725617 C155.737962,14.6653713 155.978243,2.71193747 167.753761,1.03471803 C178.675329,-0.519609157 184.243288,9.06598548 185.021178,11.3818984 C202.585922,63.5955221 175.650203,104.973858 152.861499,94.3964712" id="Stroke-5" stroke="#6BAE44"></path>
                    <path d="M107.224281,26.8787828 C107.084261,26.4529872 107.053146,26.2435511 107.008201,26.0427694 C106.356503,23.0829704 106.892382,20.2443328 108.629668,18.8336683 C111.640965,16.3862088 115.95393,16.4917923 119.205508,21.4403685 C122.045668,25.7623674 120.434573,33.7867113 115.478553,36.4539922 C110.546734,39.107426 104.335719,37.0996092 101.486915,31.2579006 C97.822191,24.9021217 95.1341508,13.2515913 106.143879,8.74265773 C116.353246,4.56085985 124.092382,12.4917365 125.413065,14.546287 C155.197588,60.8731993 139.186894,107.59129 114.505327,102.917923" id="Stroke-7" stroke="#6BAE44"></path>
                </g>
            </g>
        </g>
    </g>
</svg>