<?xml version="1.0" encoding="UTF-8"?>
<svg width="329px" height="328px" viewBox="0 0 329 328" version="1.1" xmlns="http://www.w3.org/2000/svg" xmlns:xlink="http://www.w3.org/1999/xlink">
    <!-- Generator: Sketch 46.2 (44496) - http://www.bohemiancoding.com/sketch -->
    <title>nutritiousfoodicon</title>
    <desc>Created with Sketch.</desc>
    <defs></defs>
    <g id="Page-1" stroke="none" stroke-width="1" fill="none" fill-rule="evenodd">
        <g id="Artboard" transform="translate(-118.000000, -103.000000)">
            <g id="nutritiousfoodicon" transform="translate(119.000000, 99.000000)">
                <g transform="translate(0.000000, 4.666667)">
                    <path d="M327,163.333712 C327,253.539962 253.798607,326.666667 163.5,326.666667 C73.2013926,326.666667 0,253.539962 0,163.333712 C0,73.1267042 73.2013926,0 163.5,0 C189.553334,0 214.183389,6.08752149 236.042626,16.9164113 C289.945616,43.6195191 327,99.1536093 327,163.333712 Z" id="Stroke-5" stroke="#4F524D" fill="#FFFFFF"></path>
                    <path d="M280.285714,163.333333 C280.285714,227.766258 227.998672,280 163.5,280 C99.0013278,280 46.7142857,227.766258 46.7142857,163.333333 C46.7142857,98.900409 99.0013278,46.6666667 163.5,46.6666667 C227.998672,46.6666667 280.285714,98.900409 280.285714,163.333333 Z" id="Stroke-3" stroke="#9B9B9B" stroke-width="0.5"></path>
                    <path d="M242.082859,180.551031 C235.934728,181.865263 230.662823,178.861961 225.657817,174.834072 C223.275389,172.9166 221.252302,170.459436 219.091537,168.228602 C214.702347,163.69763 210.317091,159.190834 205.542205,155.278989 C201.611681,152.059027 197.566884,149.124337 193.112002,147.160125 C182.393536,142.434827 172.681499,144.250992 164.257937,154.107507 C163.638777,154.832085 163.241279,154.810903 162.668144,154.07251 C161.409369,152.450672 159.998755,151.087857 158.442791,149.869176 C150.810683,143.892042 142.787568,143.298473 134.410423,146.902942 C127.145326,150.028965 120.886463,155.329182 114.861849,161.049594 C110.5948,165.100968 106.504176,169.438304 102.361037,173.686766 C98.5074165,177.638214 94.0977715,180.04058 89.1498037,180.752724 C84.1683998,181.469244 79.8763716,179.537036 76.8824548,174.470056 C73.9849129,169.56655 70.2005249,163.818969 70.1198847,165.808738 C69.6891477,176.425058 72.1061917,185.704352 78.3292589,193.312304 C82.7467712,198.713368 88.1355067,201.666938 94.0810534,203.300289 C101.801669,205.421527 109.569095,204.673004 117.302102,203.551025 C131.701304,201.461791 145.872746,197.927085 159.461022,191.582711 C162.380199,190.219667 164.536637,189.982746 167.427295,191.593072 C172.491306,194.414022 177.950061,196.0255 183.358662,197.655397 C193.942596,200.844737 204.638641,203.183786 215.517404,204.213667 C224.278869,205.043466 232.843847,204.637316 240.997559,199.865049 C247.697978,195.943303 252.298602,189.651655 255.060432,181.320046 C257.055197,175.301237 257.211757,168.892626 256.639211,162.503125 C256.076106,156.218845 249.310389,179.005863 242.082859,180.551031 Z" id="accounticon" fill="#6BAE44"></path>
                </g>
            </g>
        </g>
    </g>
</svg>