<?xml version="1.0" encoding="UTF-8"?>
<svg width="399px" height="396px" viewBox="0 0 399 396" version="1.1" xmlns="http://www.w3.org/2000/svg" xmlns:xlink="http://www.w3.org/1999/xlink">
    <!-- Generator: Sketch 46.2 (44496) - http://www.bohemiancoding.com/sketch -->
    <title>Dessert icon</title>
    <desc>Created with Sketch.</desc>
    <defs></defs>
    <g id="Page-1" stroke="none" stroke-width="1" fill="none" fill-rule="evenodd">
        <g id="Artboard" transform="translate(-83.000000, -67.000000)">
            <g id="Dessert-icon" transform="translate(83.000000, 67.000000)">
                <g id="Page-1">
                    <path d="M368.368,394.654298 L30.9603404,394.654298 C14.3305532,394.654298 0.851404255,381.173447 0.851404255,364.545362 L0.851404255,30.9606809 C0.851404255,14.3308936 14.3305532,0.851744681 30.9603404,0.851744681 L368.368,0.851744681 C384.997787,0.851744681 398.476936,14.3308936 398.476936,30.9606809 L398.476936,364.545362 C398.476936,381.173447 384.997787,394.654298 368.368,394.654298 Z" id="Stroke-1" stroke="#4F524D" fill="#6BAE44"></path>
                    <path d="M101.181447,119.970213 L47.4078298,119.970213 C36.4580426,119.970213 27.5797447,111.093617 27.5797447,100.142128 L27.5797447,50.2612766 C27.5797447,39.3114894 36.4580426,30.4331915 47.4078298,30.4331915 L101.181447,30.4331915 C112.132936,30.4331915 121.009532,39.3114894 121.009532,50.2612766 L121.009532,100.142128 C121.009532,111.093617 112.132936,119.970213 101.181447,119.970213 Z" id="Stroke-3" fill="#FFFFFF"></path>
                    <path d="M227.138723,123.374468 L173.365106,123.374468 C162.415319,123.374468 153.537021,114.497872 153.537021,103.546383 L153.537021,53.6655319 C153.537021,42.7157447 162.415319,33.8374468 173.365106,33.8374468 L227.138723,33.8374468 C238.090213,33.8374468 246.966809,42.7157447 246.966809,53.6655319 L246.966809,103.546383 C246.966809,114.497872 238.090213,123.374468 227.138723,123.374468 Z" id="Stroke-5" fill="#FFFFFF"></path>
                    <path d="M227.138723,242.523404 L173.365106,242.523404 C162.415319,242.523404 153.537021,233.646809 153.537021,222.695319 L153.537021,172.814468 C153.537021,161.864681 162.415319,152.986383 173.365106,152.986383 L227.138723,152.986383 C238.090213,152.986383 246.966809,161.864681 246.966809,172.814468 L246.966809,222.695319 C246.966809,233.646809 238.090213,242.523404 227.138723,242.523404 Z" id="Stroke-7" fill="#FFFFFF"></path>
                    <path d="M227.138723,361.67234 L173.365106,361.67234 C162.415319,361.67234 153.537021,352.794043 153.537021,341.845957 L153.537021,291.963404 C153.537021,281.013617 162.415319,272.135319 173.365106,272.135319 L227.138723,272.135319 C238.090213,272.135319 246.966809,281.013617 246.966809,291.963404 L246.966809,341.845957 C246.966809,352.794043 238.090213,361.67234 227.138723,361.67234 Z" id="Stroke-9" fill="#FFFFFF"></path>
                    <path d="M346.288511,361.67234 L292.513191,361.67234 C281.563404,361.67234 272.686809,352.794043 272.686809,341.845957 L272.686809,291.963404 C272.686809,281.013617 281.563404,272.135319 292.513191,272.135319 L346.288511,272.135319 C357.238298,272.135319 366.114894,281.013617 366.114894,291.963404 L366.114894,341.845957 C366.114894,352.794043 357.238298,361.67234 346.288511,361.67234 Z" id="Stroke-11" fill="#FFFFFF"></path>
                    <path d="M346.288511,242.523404 L292.513191,242.523404 C281.563404,242.523404 272.686809,233.646809 272.686809,222.695319 L272.686809,172.814468 C272.686809,161.864681 281.563404,152.986383 292.513191,152.986383 L346.288511,152.986383 C357.238298,152.986383 366.114894,161.864681 366.114894,172.814468 L366.114894,222.695319 C366.114894,233.646809 357.238298,242.523404 346.288511,242.523404 Z" id="Stroke-13" fill="#FFFFFF"></path>
                    <path d="M346.288511,123.374468 L292.513191,123.374468 C281.563404,123.374468 272.686809,114.497872 272.686809,103.546383 L272.686809,53.6655319 C272.686809,42.7157447 281.563404,33.8374468 292.513191,33.8374468 L346.288511,33.8374468 C357.238298,33.8374468 366.114894,42.7157447 366.114894,53.6655319 L366.114894,103.546383 C366.114894,114.497872 357.238298,123.374468 346.288511,123.374468 Z" id="Stroke-15" fill="#FFFFFF"></path>
                    <path d="M104.585702,361.67234 L50.8120851,361.67234 C39.8622979,361.67234 30.984,352.794043 30.984,341.845957 L30.984,291.963404 C30.984,281.013617 39.8622979,272.135319 50.8120851,272.135319 L104.585702,272.135319 C115.537191,272.135319 124.413787,281.013617 124.413787,291.963404 L124.413787,341.845957 C124.413787,352.794043 115.537191,361.67234 104.585702,361.67234 Z" id="Stroke-17" fill="#FFFFFF"></path>
                    <path d="M104.585702,242.523404 L50.8120851,242.523404 C39.8622979,242.523404 30.984,233.646809 30.984,222.695319 L30.984,172.814468 C30.984,161.864681 39.8622979,152.986383 50.8120851,152.986383 L104.585702,152.986383 C115.537191,152.986383 124.413787,161.864681 124.413787,172.814468 L124.413787,222.695319 C124.413787,233.646809 115.537191,242.523404 104.585702,242.523404 Z" id="Stroke-19" stroke="#FFFFFF" fill="#FFFFFF"></path>
                </g>
            </g>
        </g>
    </g>
</svg>