<?xml version="1.0" encoding="UTF-8"?>
<svg width="202px" height="346px" viewBox="0 0 202 346" version="1.1" xmlns="http://www.w3.org/2000/svg" xmlns:xlink="http://www.w3.org/1999/xlink">
    <!-- Generator: Sketch 46.2 (44496) - http://www.bohemiancoding.com/sketch -->
    <title>Juices Icon</title>
    <desc>Created with Sketch.</desc>
    <defs></defs>
    <g id="Page-1" stroke="none" stroke-width="1" fill="none" fill-rule="evenodd">
        <g id="Artboard" transform="translate(-110.000000, -139.000000)">
            <g id="Juices-Icon" transform="translate(111.000000, 138.000000)">
                <g id="Page-1" transform="translate(0.000000, 0.947368)">
                    <path d="M141.057458,344.998212 L61.3359728,345.403509 C50.8401991,345.403509 43.2342605,336.164339 41.3019492,331.08717 C29.2701536,262.071235 22.0160558,222.428143 19.5396558,212.157895 L179.978052,212.157895 C177.04972,230.210961 166.844414,274.213474 161.142891,306.510099 C154.209636,345.783938 150.364933,339.401402 141.057458,344.998212 Z" id="Stroke-1" stroke="#6BAE44" fill="#6BAE44"></path>
                    <path d="M136.416869,345.538955 L61.3053733,345.538955 C51.3090484,345.538955 42.7301128,338.428068 40.8897519,328.616606 L0.361252447,112.560479 C-2.03244802,99.7967539 7.77339483,88 20.7775981,88 L179.357176,88 C192.451912,88 202.280208,99.9529736 199.731514,112.778897 C185.417837,184.798329 171.104884,256.816315 156.791208,328.835024 C154.861762,338.54451 146.330628,345.538955 136.416869,345.538955 Z" id="Stroke-1" stroke="#4F524D"></path>
                    <path d="M189.73232,60.0206924 C189.73232,26.1520002 148.955129,0.552631579 96.579171,0.552631579 C45.1407689,0.552631579 3.5,28.5857487 3.5,63.051369 C3.5,72.3166523 16.8349786,78.1741488 35.3577687,76.4928809 C84.1758051,72.0617882 136.920082,71.7881124 168.315056,77.8231714 C174.855249,79.0803934 180.335436,77.0547362 184.385198,72.6008028 C187.694753,68.9609494 189.73232,63.8774967 189.73232,60.0206924 Z" id="Oval" stroke="#4F524D"></path>
                </g>
            </g>
        </g>
    </g>
</svg>