<?xml version="1.0" encoding="UTF-8"?>
<svg width="411px" height="400px" viewBox="0 0 411 400" version="1.1" xmlns="http://www.w3.org/2000/svg" xmlns:xlink="http://www.w3.org/1999/xlink">
    <!-- Generator: Sketch 46.2 (44496) - http://www.bohemiancoding.com/sketch -->
    <title>dateandtimeicon_default</title>
    <desc>Created with Sketch.</desc>
    <defs></defs>
    <g id="Page-1" stroke="none" stroke-width="1" fill="none" fill-rule="evenodd" opacity="0.5">
        <g id="Artboard" transform="translate(-99.000000, -55.000000)">
            <g id="dateandtimeicon_default" transform="translate(99.000000, 55.000000)">
                <g>
                    <rect id="Rectangle-6" stroke="#6BAE44" x="0.5" y="0.5" width="409.804312" height="399" rx="4"></rect>
                    <path d="M0,105.555556 L410.804312,105.555556 L410.804312,396 L410.804312,396 C410.804312,398.209139 409.013451,400 406.804312,400 L4,400 L4,400 C1.790861,400 2.705415e-16,398.209139 0,396 L0,105.555556 Z" id="Rectangle" fill="#6BAE44"></path>
                    <path d="M156.223499,257.261538 C156.223499,283.969231 136.299917,303.784615 110.227081,303.784615 C84.1542454,303.784615 65.0915589,283.969231 65.0915589,257.261538 C65.0915589,230.430769 85.015141,210.615385 111.087977,210.615385 C137.160813,210.615385 156.223499,230.430769 156.223499,257.261538 Z M139.743499,257.261538 C139.743499,238.430769 127.813947,224.4 110.719022,224.4 C93.5011111,224.4 81.5715589,238.430769 81.5715589,257.261538 C81.5715589,275.969231 93.5011111,290.123077 110.719022,290.123077 C127.813947,290.123077 139.743499,275.969231 139.743499,257.261538 Z M212.796633,298 L208.861111,288.153846 C205.048574,290.369231 200.375141,291.846154 195.701708,291.846154 C186.846783,291.846154 179.344693,285.938462 179.344693,276.092308 C179.344693,265.507692 186.231857,260.092308 194.963798,260.092308 C199.883201,260.092308 204.187678,261.569231 208.246186,263.784615 L212.796633,254.061538 C208.123201,251.107692 201.604992,248.769231 195.209768,248.769231 C176.639022,248.769231 165.570365,261.323077 165.570365,276.215385 C165.570365,291.107692 176.639022,303.292308 195.209768,303.292308 C201.604992,303.292308 208.123201,300.953846 212.796633,298 Z M253.750663,261.076923 L253.750663,249.753846 L239.115439,249.753846 L239.115439,232.030769 L225.218126,240.769231 L225.218126,249.261538 L215.256335,259.230769 L215.256335,261.076923 L225.218126,261.076923 L225.218126,284.461538 C225.218126,298.492308 231.490365,303.292308 241.329171,303.292308 C245.018723,303.292308 248.58529,302.676923 252.520813,301.815385 L249.938126,290.984615 C248.216335,291.353846 246.863499,291.6 245.387678,291.6 C241.329171,291.6 239.115439,289.876923 239.115439,285.2 L239.115439,261.076923 L253.750663,261.076923 Z M316.350066,302.307692 L316.350066,228.953846 L312.660514,228.953846 L285.603798,239.292308 L290.03126,251.107692 L302.452753,246.307692 L302.452753,302.307692 L316.350066,302.307692 Z" id="Oct-1" fill="#4F524D"></path>
                </g>
            </g>
        </g>
    </g>
</svg>