<?xml version="1.0" encoding="UTF-8"?>
<svg width="197px" height="296px" viewBox="0 0 197 296" version="1.1" xmlns="http://www.w3.org/2000/svg" xmlns:xlink="http://www.w3.org/1999/xlink">
    <!-- Generator: Sketch 46.2 (44496) - http://www.bohemiancoding.com/sketch -->
    <title>locationicon_default</title>
    <desc>Created with Sketch.</desc>
    <defs></defs>
    <g id="Page-1" stroke="none" stroke-width="1" fill="none" fill-rule="evenodd" opacity="0.5">
        <g id="Artboard" transform="translate(-183.000000, -119.000000)">
            <g id="locationicon_default" transform="translate(68.000000, 67.000000)">
                <g transform="translate(0.000000, 2.083333)" id="Group-2">
                    <g transform="translate(115.246489, 49.959547)">
                        <g id="noun_1169253" fill-rule="nonzero" fill="#6BAE44">
                            <path d="M97.9595155,0 C44.7094764,0 0,36.0084509 0,90.8016007 C0,111.647899 8.37629211,138.972119 17.0720829,155.539611 L87.7159643,290.060501 C89.57329,293.612875 93.5676432,295.883477 97.9595155,295.883477 C102.351388,295.883477 106.345741,293.612875 108.203067,290.060501 L178.846948,155.539611 C187.542739,138.972119 195.919031,111.647899 195.919031,90.8016007 C195.919031,36.0084845 151.209931,0 97.9595155,0 Z" id="Shape"></path>
                        </g>
                        <path d="M168.814024,92.1316455 C168.397261,88.1053274 166.592358,85.0343268 162.975564,83.4504411 C159.305929,81.8436903 153.099764,82.6835023 150.751454,88.310818 C149.42154,91.4977666 149.505825,94.7897471 151.418448,97.9831864 C153.646956,101.704145 159.157595,101.655317 161.878269,98.7330133 C163.729609,96.744637 163.876779,92.7109431 162.333025,90.4253209 C161.470823,89.1487123 160.193606,88.6484835 158.810851,88.670906 C157.948503,88.6849201 157.000707,88.9272899 156.614369,90.0811647 C157.030258,90.1041773 157.38923,90.0907533 157.737429,90.1496124 C158.856123,90.3388762 159.773204,91.4732789 159.939152,92.8366273 C160.100151,94.1573434 159.389194,95.5206918 158.255653,96.0650281 C157.221389,96.5615689 155.944026,96.2958915 155.187652,95.4264287 C153.065264,92.9872417 154.365191,88.2678907 157.370014,87.3391262 C160.843569,86.2655004 163.794387,88.4837075 164.828651,91.767722 C166.631079,97.4895959 163.389852,102.704898 158.040648,103.694882 C153.490324,104.536906 149.588507,102.6127 145.884227,100.032044 C144.120956,98.8035262 142.623639,97.2292291 141.024424,95.7999407 C137.775919,92.8969616 134.530325,90.0094717 130.996359,87.5031646 C128.087319,85.440145 125.093704,83.5598984 121.796579,82.3014343 C113.863681,79.2739511 106.675656,80.4375621 100.441251,86.7526002 C99.9830011,87.2168349 99.6888073,87.2032634 99.2646208,86.7301776 C98.3329828,85.6910707 97.2889658,84.81792 96.1373738,84.0371146 C90.4887357,80.2075837 84.5507075,79.8272859 78.3506561,82.1366583 C72.9736487,84.1394911 68.3413694,87.5353232 63.8824622,91.2003732 C60.7243547,93.7960752 57.6968221,96.574993 54.6304227,99.2969692 C51.7783001,101.828649 48.5146554,103.367837 44.8525899,103.824106 C41.1657778,104.283178 37.9891831,103.045219 35.7733401,99.7988207 C33.6288257,96.6571597 33.671914,90.5909821 37.761514,87.8610399 C39.5386137,86.6747114 42.3969957,86.8251783 43.8908192,88.2907558 C45.2804156,89.6538091 46.2343256,92.0537567 45.0763286,94.5497376 C44.5141433,95.7612914 43.5849799,96.3790909 42.2955345,96.2839427 C41.188632,96.2025135 40.232684,95.340574 39.9048639,94.1285777 C39.3038117,91.9057975 40.6164025,90.2000631 43.0990724,90.0748215 C42.9485546,89.5325505 42.6818732,89.2771993 42.2988826,89.079527 C40.477239,88.1388137 38.0181512,88.8874604 37.1744365,90.8405802 C35.6894927,94.2774219 35.8739279,98.7833164 40.5343019,100.453204 C43.941477,101.674052 47.7594463,100.1446 49.0819357,96.6576022 C50.788289,92.1576084 49.6420831,86.2038384 44.8668556,83.8783867 C38.8963657,80.9709821 32.8180095,83.733673 31.178472,90.4577746 C30.8764175,91.696619 30.8279432,92.9747028 30.7682601,94.2495413 C30.4494652,101.051384 32.2383559,106.996598 36.8441416,111.870989 C40.113609,115.331434 44.1018934,117.223776 48.5022821,118.270259 C54.216426,119.62933 59.9652153,119.149753 65.68853,118.430905 C76.3455962,117.092339 86.8340942,114.827664 96.8909817,110.762844 C99.0515086,109.889546 100.647521,109.737752 102.786941,110.769483 C106.534892,112.576856 110.574998,113.609325 114.577985,114.653595 C122.411314,116.696995 130.327618,118.195616 138.379154,118.855458 C144.863647,119.387107 151.202716,119.126888 157.237402,116.069312 C162.196482,113.556661 165.601474,109.525623 167.645546,104.187587 C169.121901,100.331356 169.237773,96.2253786 168.814024,92.1316455" id="Fill-1" fill="#4F524D"></path>
                    </g>
                </g>
            </g>
        </g>
    </g>
</svg>