<?xml version="1.0" encoding="UTF-8"?>
<svg width="412px" height="400px" viewBox="0 0 412 400" version="1.1" xmlns="http://www.w3.org/2000/svg" xmlns:xlink="http://www.w3.org/1999/xlink">
    <!-- Generator: Sketch 46.2 (44496) - http://www.bohemiancoding.com/sketch -->
    <title>dateandtimeicon_active</title>
    <desc>Created with Sketch.</desc>
    <defs></defs>
    <g id="Page-1" stroke="none" stroke-width="1" fill="none" fill-rule="evenodd">
        <g id="Artboard" transform="translate(-76.000000, -67.000000)">
            <g id="dateandtimeicon_active" transform="translate(76.000000, 67.000000)">
                <rect id="Rectangle-6" stroke="#6BAE44" x="0.5" y="0.5" width="410.111111" height="399" rx="4"></rect>
                <path d="M0,105.555556 L411.111111,105.555556 L411.111111,396 L411.111111,396 C411.111111,398.209139 409.32025,400 407.111111,400 L4,400 L4,400 C1.790861,400 2.705415e-16,398.209139 0,396 L0,105.555556 Z" id="Rectangle" fill="#6BAE44"></path>
                <path d="M156.340171,257.261538 C156.340171,283.969231 136.401709,303.784615 110.309402,303.784615 C84.217094,303.784615 65.1401709,283.969231 65.1401709,257.261538 C65.1401709,230.430769 85.0786325,210.615385 111.17094,210.615385 C137.263248,210.615385 156.340171,230.430769 156.340171,257.261538 Z M139.847863,257.261538 C139.847863,238.430769 127.909402,224.4 110.801709,224.4 C93.5709402,224.4 81.6324786,238.430769 81.6324786,257.261538 C81.6324786,275.969231 93.5709402,290.123077 110.801709,290.123077 C127.909402,290.123077 139.847863,275.969231 139.847863,257.261538 Z M212.955556,298 L209.017094,288.153846 C205.201709,290.369231 200.524786,291.846154 195.847863,291.846154 C186.986325,291.846154 179.478632,285.938462 179.478632,276.092308 C179.478632,265.507692 186.37094,260.092308 195.109402,260.092308 C200.032479,260.092308 204.340171,261.569231 208.401709,263.784615 L212.955556,254.061538 C208.278632,251.107692 201.755556,248.769231 195.355556,248.769231 C176.77094,248.769231 165.694017,261.323077 165.694017,276.215385 C165.694017,291.107692 176.77094,303.292308 195.355556,303.292308 C201.755556,303.292308 208.278632,300.953846 212.955556,298 Z M253.940171,261.076923 L253.940171,249.753846 L239.294017,249.753846 L239.294017,232.030769 L225.386325,240.769231 L225.386325,249.261538 L215.417094,259.230769 L215.417094,261.076923 L225.386325,261.076923 L225.386325,284.461538 C225.386325,298.492308 231.663248,303.292308 241.509402,303.292308 C245.201709,303.292308 248.77094,302.676923 252.709402,301.815385 L250.124786,290.984615 C248.401709,291.353846 247.047863,291.6 245.57094,291.6 C241.509402,291.6 239.294017,289.876923 239.294017,285.2 L239.294017,261.076923 L253.940171,261.076923 Z M316.586325,302.307692 L316.586325,228.953846 L312.894017,228.953846 L285.817094,239.292308 L290.247863,251.107692 L302.678632,246.307692 L302.678632,302.307692 L316.586325,302.307692 Z" id="Oct-1" fill="#4F524D"></path>
            </g>
        </g>
    </g>
</svg>