<?xml version="1.0" encoding="UTF-8"?>
<svg width="321px" height="350px" viewBox="0 0 321 350" version="1.1" xmlns="http://www.w3.org/2000/svg" xmlns:xlink="http://www.w3.org/1999/xlink">
    <!-- Generator: Sketch 46.2 (44496) - http://www.bohemiancoding.com/sketch -->
    <title>similaritemsicon_active</title>
    <desc>Created with Sketch.</desc>
    <defs></defs>
    <g id="Page-1" stroke="none" stroke-width="1" fill="none" fill-rule="evenodd">
        <g id="Artboard" transform="translate(-131.000000, -88.000000)">
            <g id="similaritemsicon_active" transform="translate(1.500000, 19.500000)">
                <g id="Similar-Item-Icon">
                    <g transform="translate(130.000000, 69.728155)">
                        <g id="Bag">
                            <path d="M66.6246096,345.649692 L0,90.0466242 C0,86.5169745 3.35699625,85.3568798 7.4893617,85.3568798 C88.8533555,85.3568798 149.876351,85.3568798 190.558348,85.3568798 C213.11985,85.3568798 246.962103,85.3568798 292.085106,85.3568798 C296.217472,85.3568798 299.574468,87.5125167 299.574468,91.0503941 L232.951934,345.653372 L232.951934,345.653372 C232.491418,347.413267 230.901373,348.640777 229.082224,348.640777 L70.49528,348.640777 L70.49528,348.640777 C68.6747155,348.640777 67.0838086,347.411394 66.6246096,345.649692 Z" id="Stroke-448" fill="#6BAE44"></path>
                            <path d="M81.7021277,94.0299632 L81.7021277,69.6461931 C81.7021277,31.1859376 112.478298,0 153.191489,0 C193.904681,0 224.680851,31.1859376 224.680851,69.6461931 L224.680851,94.0299632" id="Stroke-449" stroke="#6BAE44" stroke-width="2" stroke-linecap="round" stroke-linejoin="round"></path>
                        </g>
                        <g id="Group" transform="translate(163.404255, 154.312186)">
                            <g id="Equal-Sign" fill="#4F524D">
                                <ellipse id="Oval-2" cx="78.2978723" cy="72.0896384" rx="78.2978723" ry="72.0896384"></ellipse>
                            </g>
                            <path d="M122.542557,59.7489915 C122.542557,61.1621558 120.995493,62.2220131 117.901317,62.9285953 C114.807142,63.6351775 111.009802,63.9884632 106.509183,63.9884632 L50.814307,63.9884632 C48.704642,63.9884632 46.5598481,63.8976183 44.379861,63.7159258 C42.1998739,63.5342332 40.3012039,63.2616985 38.6837941,62.8983134 C37.0663843,62.5349282 35.8357648,62.0907975 34.9918989,61.5659079 C34.1480329,61.0410183 33.8667484,60.4151978 34.1480371,59.6884276 C34.7106144,58.4367677 36.7147661,57.578788 40.1605522,57.1144626 C43.6063383,56.6501371 47.2981966,56.4179779 51.2362378,56.4179779 L106.931114,56.4179779 C108.478202,56.4179779 110.165909,56.4886351 111.994285,56.6299515 C113.822661,56.7712679 115.510368,56.9731455 117.057456,57.2355903 C118.604543,57.4980351 119.905484,57.841227 120.960316,58.2651763 C122.015149,58.6891256 122.542557,59.1837257 122.542557,59.7489915 Z M122.553191,84.1574456 C122.553191,85.6513622 121.223627,86.84244 118.564457,87.7307147 C115.905287,88.6189894 111.846615,89.0631201 106.388319,89.0631201 L50.5460313,89.0631201 C46.2073857,89.0631201 42.6035649,88.7502098 39.7344606,88.1243799 C36.8653563,87.49855 35.0809401,86.7717907 34.3811586,85.9440801 C33.681377,85.1163696 34.0662511,84.2987654 35.5357923,83.4912429 C37.0053336,82.6837204 39.8394063,82.0982754 44.0380955,81.7348903 C46.1374401,81.5733858 48.4466846,81.4926348 50.9658981,81.4926348 L106.808186,81.4926348 C109.887224,81.4926348 112.89624,81.6541368 115.835322,81.9771458 C118.774405,82.3001548 120.873718,82.9057876 122.133325,83.7940623 L122.553191,84.1574456 Z" id="=" fill="#FFFFFF"></path>
                        </g>
                    </g>
                </g>
            </g>
        </g>
    </g>
</svg>